<svg xmlns="http://www.w3.org/2000/svg" width="294" height="9" viewBox="0 0 294 9"><g><g><path fill="#b4b4b4" d="M0 5.193v-1h103v1zm191 0v-1h103v1z"/></g><g><path fill="#666" d="M106.354 8.546l-.708-.707 7-6.999.707.707zm6 0l-.708-.707 7-6.999.707.707zm6 0l-.708-.707 7-6.999.707.707zm6 0l-.708-.707 7-6.999.708.707zm6 0l-.708-.707 7-6.999.708.707zm6 0l-.708-.707 7-6.999.707.707zm6 0l-.708-.707 7-6.999.707.707zm6 0l-.708-.707 7-6.999.707.707zm6 0l-.708-.707 7-6.999.708.707zm6 0l-.708-.707 7-6.999.708.707zm6 0l-.708-.707 7-6.999.707.707zm6 0l-.708-.707 7-6.999.707.707zm7 0l-.708-.707 7-6.999.707.707z"/></g></g></svg>