<svg xmlns="http://www.w3.org/2000/svg" width="16" height="14" viewBox="0 0 16 14"><g><g><path fill="#789629" d="M7.937 4.01H13v-.967l1.937 1.895c.917 1 1.063 2.104 1.063 2.104v3.02c0 .948-1.084.938-1.084.938l-7.979.028s-.062 2.045-2.531 2.045c0 0-2.188-.25-2.563-1.907 0 0-.22-.266-.338-.45l-.56-.885S0 8.075 0 6.023v-.4c0-2.605.852-3.281.852-3.281l.747-1.022C2.14.554 2.89.928 2.89.928l1.227.417-1.395 2.69s-.378-.164-.781-.27a.4.4 0 0 1-.1-.034c.004.006.008.022-.03.05C.997 4.394 1 5.54 1 5.54v.482c0 1.001.703 2.031.703 2.031.047.05.002.102.208.029.256-.067.81-.272.81-.272L4.025 10.5l-1.228.39c1.75 2.562 3.217.141 3.217.141C5.128 11.031 5 10 5 10V6.875c.083-1.416.979-1.905.979-1.905l2.02-1.949zM9 .044h3v3H9zM8 5.542a.5.5 0 1 0 1 0 .5.5 0 0 0-1 0zm0 2a.5.5 0 1 0 1 0 .5.5 0 0 0-1 0zm0 2a.5.5 0 1 0 1 0 .5.5 0 0 0-1 0zm2 0a.5.5 0 1 0 1 0 .5.5 0 0 0-1 0zm0-2a.5.5 0 1 0 1 0 .5.5 0 0 0-1 0zm0-2a.5.5 0 1 0 1 0 .5.5 0 0 0-1 0zm2 0a.5.5 0 1 0 1 0 .5.5 0 0 0-1 0zm0 2a.5.5 0 1 0 1 0 .5.5 0 0 0-1 0zm0 2a.5.5 0 1 0 1 0 .5.5 0 0 0-1 0z"/></g></g></svg>