<svg xmlns="http://www.w3.org/2000/svg" width="16" height="16" viewBox="0 0 16 16"><g><g><path fill="#212121" d="M10.928 9.47l.277-.862 4.808 1.808-.253.87zm4.551 2.9l-.281.887s-.915 3.317-3.117 2.631l-1.612-.845S4.274 11.673.756 5.5L.07 4.048c-.64-2.345 2.854-2.921 2.854-2.921L3.37.92l2.42 4.42s-.597.246-.746.309a.407.407 0 0 1-.135.04c.012.005.036.024.042.095.111 1.39 1.486 3.277 1.8 3.693 1.403 1.214 3.491 1.79 3.491 1.79.111.029.142.139.224-.145.034-.08.14-.622.14-.622zM4.322.454l.8-.37 2.3 4.571-.709.258z"/></g></g></svg>