<svg xmlns="http://www.w3.org/2000/svg" width="16" height="16" viewBox="0 0 16 16"><g><g><path fill="#789629" d="M10.928 9.512l.277-.86 4.808 1.807-.253.87zm4.551 2.9l-.281.887s-.915 3.318-3.117 2.632l-1.612-.846S4.274 11.716.756 5.545L.07 4.091C-.57 1.747 2.925 1.17 2.925 1.17l.444-.206 2.42 4.42s-.597.245-.746.308a.408.408 0 0 1-.135.04c.012.005.036.024.042.095.111 1.39 1.486 3.278 1.8 3.694 1.403 1.213 3.491 1.79 3.491 1.79.11.028.142.138.224-.146.033-.079.14-.622.14-.622zM4.322.5l.799-.37L7.423 4.7l-.71.259z"/></g></g></svg>